{
    "asset" : {
        "generator" : "Khronos glTF Blender I/O v0.9.36",
        "version" : "2.0"
    },
    "scene" : 0,
    "scenes" : [
        {
            "name" : "Scene",
            "nodes" : [
                0,
                1,
                2,
                3,
                4,
                5,
                6,
                7
            ]
        }
    ],
    "nodes" : [
        {
            "mesh" : 0,
            "name" : "Cylinder.001",
            "rotation" : [
                0.7058295607566833,
                -0.08345731347799301,
                0.0843481570482254,
                0.698373019695282
            ],
            "scale" : [
                0.32765984535217285,
                0.08208830654621124,
                0.32765984535217285
            ],
            "translation" : [
                2.4684743881225586,
                0.8786638379096985,
                2.827702283859253
            ]
        },
        {
            "mesh" : 1,
            "name" : "Cylinder.003",
            "rotation" : [
                0.0823415219783783,
                0.6986073851585388,
                -0.7060664892196655,
                0.08147203922271729
            ],
            "scale" : [
                0.32765984535217285,
                0.08208830654621124,
                0.32765984535217285
            ],
            "translation" : [
                2.468472957611084,
                0.8786638379096985,
                0.8552329540252686
            ]
        },
        {
            "mesh" : 2,
            "name" : "Cylinder.002",
            "rotation" : [
                0.000524703471455723,
                0.7033418416976929,
                -0.7108514308929443,
                0.0005193895776756108
            ],
            "scale" : [
                0.32765984535217285,
                0.08208830654621124,
                0.32765984535217285
            ],
            "translation" : [
                -0.09984302520751953,
                0.8786638379096985,
                0.8514397144317627
            ]
        },
        {
            "name" : "Light",
            "rotation" : [
                0.16907575726509094,
                0.7558803558349609,
                -0.27217137813568115,
                0.570947527885437
            ],
            "translation" : [
                3.8090193271636963,
                7.251621723175049,
                -1.9374468326568604
            ]
        },
        {
            "name" : "Camera",
            "rotation" : [
                0.483536034822464,
                0.33687159419059753,
                -0.20870360732078552,
                0.7804827094078064
            ],
            "translation" : [
                7.358891487121582,
                4.958309173583984,
                6.925790786743164
            ]
        },
        {
            "name" : "Empty",
            "rotation" : [
                0,
                0.7071067094802856,
                -0.7071068286895752,
                -3.0908616110991716e-08
            ],
            "translation" : [
                -0.02351534366607666,
                0.023515701293945312,
                2.136699914932251
            ]
        },
        {
            "mesh" : 3,
            "name" : "Cube",
            "scale" : [
                2.2908945083618164,
                0.45588040351867676,
                1
            ],
            "translation" : [
                1.0590757131576538,
                1.1137950420379639,
                1.8428871631622314
            ]
        },
        {
            "mesh" : 4,
            "name" : "Cylinder",
            "rotation" : [
                0.7108516097068787,
                0,
                0,
                0.7033420205116272
            ],
            "scale" : [
                0.32765984535217285,
                0.08208830654621124,
                0.32765984535217285
            ],
            "translation" : [
                -0.09984443336725235,
                0.8786638379096985,
                2.827702283859253
            ]
        }
    ],
    "materials" : [
        {
            "doubleSided" : true,
            "name" : "Material.008",
            "pbrMetallicRoughness" : {
                "baseColorTexture" : {
                    "index" : 0,
                    "texCoord" : 0
                },
                "metallicFactor" : 0,
                "roughnessFactor" : 0.05963301658630371
            }
        },
        {
            "doubleSided" : true,
            "name" : "Material.012",
            "pbrMetallicRoughness" : {
                "baseColorTexture" : {
                    "index" : 1,
                    "texCoord" : 0
                },
                "metallicFactor" : 0,
                "roughnessFactor" : 0.5
            }
        },
        {
            "doubleSided" : true,
            "name" : "Material.010",
            "pbrMetallicRoughness" : {
                "baseColorTexture" : {
                    "index" : 2,
                    "texCoord" : 0
                },
                "metallicFactor" : 0,
                "roughnessFactor" : 0.5
            }
        },
        {
            "doubleSided" : true,
            "name" : "Material",
            "pbrMetallicRoughness" : {
                "baseColorFactor" : [
                    0,
                    0,
                    0,
                    1
                ],
                "metallicFactor" : 0,
                "roughnessFactor" : 0.29816514253616333
            }
        },
        {
            "doubleSided" : true,
            "name" : "Material.002",
            "pbrMetallicRoughness" : {
                "baseColorFactor" : [
                    0.1769169270992279,
                    0.6509653925895691,
                    0.8000000715255737,
                    1
                ],
                "metallicFactor" : 0,
                "roughnessFactor" : 0.3899082541465759
            }
        },
        {
            "doubleSided" : true,
            "name" : "Material.006",
            "pbrMetallicRoughness" : {
                "baseColorTexture" : {
                    "index" : 3,
                    "texCoord" : 0
                },
                "metallicFactor" : 0,
                "roughnessFactor" : 0.5
            }
        }
    ],
    "meshes" : [
        {
            "name" : "Cylinder.002",
            "primitives" : [
                {
                    "attributes" : {
                        "POSITION" : 0,
                        "NORMAL" : 1,
                        "TEXCOORD_0" : 2
                    },
                    "indices" : 3,
                    "material" : 0
                }
            ]
        },
        {
            "name" : "Cylinder.004",
            "primitives" : [
                {
                    "attributes" : {
                        "POSITION" : 4,
                        "NORMAL" : 5,
                        "TEXCOORD_0" : 6
                    },
                    "indices" : 3,
                    "material" : 1
                }
            ]
        },
        {
            "name" : "Cylinder.003",
            "primitives" : [
                {
                    "attributes" : {
                        "POSITION" : 7,
                        "NORMAL" : 8,
                        "TEXCOORD_0" : 9
                    },
                    "indices" : 3,
                    "material" : 2
                }
            ]
        },
        {
            "name" : "Cube.001",
            "primitives" : [
                {
                    "attributes" : {
                        "POSITION" : 10,
                        "NORMAL" : 11,
                        "TEXCOORD_0" : 12
                    },
                    "indices" : 13,
                    "material" : 3
                },
                {
                    "attributes" : {
                        "POSITION" : 14,
                        "NORMAL" : 15,
                        "TEXCOORD_0" : 16
                    },
                    "indices" : 17,
                    "material" : 4
                }
            ]
        },
        {
            "name" : "Cylinder",
            "primitives" : [
                {
                    "attributes" : {
                        "POSITION" : 18,
                        "NORMAL" : 19,
                        "TEXCOORD_0" : 20
                    },
                    "indices" : 3,
                    "material" : 5
                }
            ]
        }
    ],
    "textures" : [
        {
            "source" : 0
        },
        {
            "source" : 0
        },
        {
            "source" : 0
        },
        {
            "source" : 0
        }
    ],
    "images" : [
        {
            "bufferView" : 4,
            "mimeType" : "image/png",
            "name" : "car_tire"
        }
    ],
    "accessors" : [
        {
            "bufferView" : 0,
            "componentType" : 5126,
            "count" : 1240,
            "max" : [
                1,
                1.1528970003128052,
                1
            ],
            "min" : [
                -1,
                -1,
                -1
            ],
            "type" : "VEC3"
        },
        {
            "bufferView" : 1,
            "componentType" : 5126,
            "count" : 1240,
            "type" : "VEC3"
        },
        {
            "bufferView" : 2,
            "componentType" : 5126,
            "count" : 1240,
            "type" : "VEC2"
        },
        {
            "bufferView" : 3,
            "componentType" : 5123,
            "count" : 2112,
            "type" : "SCALAR"
        },
        {
            "bufferView" : 5,
            "componentType" : 5126,
            "count" : 1240,
            "max" : [
                1,
                1.1528970003128052,
                1
            ],
            "min" : [
                -1,
                -1,
                -1
            ],
            "type" : "VEC3"
        },
        {
            "bufferView" : 6,
            "componentType" : 5126,
            "count" : 1240,
            "type" : "VEC3"
        },
        {
            "bufferView" : 7,
            "componentType" : 5126,
            "count" : 1240,
            "type" : "VEC2"
        },
        {
            "bufferView" : 8,
            "componentType" : 5126,
            "count" : 1240,
            "max" : [
                1,
                1.1528970003128052,
                1
            ],
            "min" : [
                -1,
                -1,
                -1
            ],
            "type" : "VEC3"
        },
        {
            "bufferView" : 9,
            "componentType" : 5126,
            "count" : 1240,
            "type" : "VEC3"
        },
        {
            "bufferView" : 10,
            "componentType" : 5126,
            "count" : 1240,
            "type" : "VEC2"
        },
        {
            "bufferView" : 11,
            "componentType" : 5126,
            "count" : 535,
            "max" : [
                0.9735574722290039,
                1.449754238128662,
                1
            ],
            "min" : [
                -0.9729930758476257,
                -0.8454355001449585,
                -1
            ],
            "type" : "VEC3"
        },
        {
            "bufferView" : 12,
            "componentType" : 5126,
            "count" : 535,
            "type" : "VEC3"
        },
        {
            "bufferView" : 13,
            "componentType" : 5126,
            "count" : 535,
            "type" : "VEC2"
        },
        {
            "bufferView" : 14,
            "componentType" : 5123,
            "count" : 819,
            "type" : "SCALAR"
        },
        {
            "bufferView" : 15,
            "componentType" : 5126,
            "count" : 8,
            "max" : [
                0.35681062936782837,
                1.449754238128662,
                0.9340203404426575
            ],
            "min" : [
                -0.36728525161743164,
                0.42912372946739197,
                -0.9336463212966919
            ],
            "type" : "VEC3"
        },
        {
            "bufferView" : 16,
            "componentType" : 5126,
            "count" : 8,
            "type" : "VEC3"
        },
        {
            "bufferView" : 17,
            "componentType" : 5126,
            "count" : 8,
            "type" : "VEC2"
        },
        {
            "bufferView" : 18,
            "componentType" : 5123,
            "count" : 12,
            "type" : "SCALAR"
        },
        {
            "bufferView" : 19,
            "componentType" : 5126,
            "count" : 1240,
            "max" : [
                1,
                1.1528970003128052,
                1
            ],
            "min" : [
                -1,
                -1,
                -1
            ],
            "type" : "VEC3"
        },
        {
            "bufferView" : 20,
            "componentType" : 5126,
            "count" : 1240,
            "type" : "VEC3"
        },
        {
            "bufferView" : 21,
            "componentType" : 5126,
            "count" : 1240,
            "type" : "VEC2"
        }
    ],
    "bufferViews" : [
        {
            "buffer" : 0,
            "byteLength" : 14880,
            "byteOffset" : 0
        },
        {
            "buffer" : 0,
            "byteLength" : 14880,
            "byteOffset" : 14880
        },
        {
            "buffer" : 0,
            "byteLength" : 9920,
            "byteOffset" : 29760
        },
        {
            "buffer" : 0,
            "byteLength" : 4224,
            "byteOffset" : 39680
        },
        {
            "buffer" : 0,
            "byteLength" : 110961,
            "byteOffset" : 43904
        },
        {
            "buffer" : 0,
            "byteLength" : 14880,
            "byteOffset" : 154868
        },
        {
            "buffer" : 0,
            "byteLength" : 14880,
            "byteOffset" : 169748
        },
        {
            "buffer" : 0,
            "byteLength" : 9920,
            "byteOffset" : 184628
        },
        {
            "buffer" : 0,
            "byteLength" : 14880,
            "byteOffset" : 194548
        },
        {
            "buffer" : 0,
            "byteLength" : 14880,
            "byteOffset" : 209428
        },
        {
            "buffer" : 0,
            "byteLength" : 9920,
            "byteOffset" : 224308
        },
        {
            "buffer" : 0,
            "byteLength" : 6420,
            "byteOffset" : 234228
        },
        {
            "buffer" : 0,
            "byteLength" : 6420,
            "byteOffset" : 240648
        },
        {
            "buffer" : 0,
            "byteLength" : 4280,
            "byteOffset" : 247068
        },
        {
            "buffer" : 0,
            "byteLength" : 1638,
            "byteOffset" : 251348
        },
        {
            "buffer" : 0,
            "byteLength" : 96,
            "byteOffset" : 252988
        },
        {
            "buffer" : 0,
            "byteLength" : 96,
            "byteOffset" : 253084
        },
        {
            "buffer" : 0,
            "byteLength" : 64,
            "byteOffset" : 253180
        },
        {
            "buffer" : 0,
            "byteLength" : 24,
            "byteOffset" : 253244
        },
        {
            "buffer" : 0,
            "byteLength" : 14880,
            "byteOffset" : 253268
        },
        {
            "buffer" : 0,
            "byteLength" : 14880,
            "byteOffset" : 268148
        },
        {
            "buffer" : 0,
            "byteLength" : 9920,
            "byteOffset" : 283028
        }
    ],
    "buffers" : [
        {
            "byteLength" : 292948,
            "uri" : "data:application/octet-stream;base64,"
        }
    ]
}
