{
    "asset" : {
        "generator" : "Khronos glTF Blender I/O v0.9.36",
        "version" : "2.0"
    },
    "scene" : 0,
    "scenes" : [
        {
            "name" : "Scene",
            "nodes" : [
                0,
                1,
                2,
                3,
                4,
                5,
                6,
                7
            ]
        }
    ],
    "nodes" : [
        {
            "name" : "Light",
            "rotation" : [
                0.16907575726509094,
                0.7558803558349609,
                -0.27217137813568115,
                0.570947527885437
            ],
            "scale" : [
                0.27792370319366455,
                0.2779236435890198,
                0.27792370319366455
            ],
            "translation" : [
                2.214583158493042,
                3.4451169967651367,
                0.3361546993255615
            ]
        },
        {
            "name" : "Camera",
            "rotation" : [
                0.483536034822464,
                0.33687159419059753,
                -0.20870360732078552,
                0.7804827094078064
            ],
            "translation" : [
                7.358891487121582,
                4.958309173583984,
                6.925790786743164
            ]
        },
        {
            "name" : "Empty",
            "rotation" : [
                0,
                0.7071067094802856,
                -0.7071068286895752,
                -3.0908616110991716e-08
            ],
            "translation" : [
                -0.02351534366607666,
                0.023515701293945312,
                2.136699914932251
            ]
        },
        {
            "mesh" : 0,
            "name" : "car_plain",
            "scale" : [
                0.6366937756538391,
                0.12669993937015533,
                0.2779236435890198
            ],
            "translation" : [
                1.4503087997436523,
                0.17045271396636963,
                1.3867989778518677
            ]
        },
        {
            "mesh" : 1,
            "name" : "wheel_back_right",
            "rotation" : [
                0.7108516097068787,
                0,
                0,
                0.7033420205116272
            ],
            "scale" : [
                0.09106441587209702,
                0.022814281284809113,
                0.09106441587209702
            ],
            "translation" : [
                1.1282174587249756,
                0.10510408878326416,
                1.6605024337768555
            ]
        },
        {
            "mesh" : 2,
            "name" : "wheel_top_right",
            "rotation" : [
                0.7058295607566833,
                -0.08345731347799301,
                0.0843481570482254,
                0.698373019695282
            ],
            "scale" : [
                0.09106440097093582,
                0.022814275696873665,
                0.09106441587209702
            ],
            "translation" : [
                1.8420140743255615,
                0.10510408878326416,
                1.6605024337768555
            ]
        },
        {
            "mesh" : 3,
            "name" : "wheel_back_left",
            "rotation" : [
                0.000524703471455723,
                0.7033418416976929,
                -0.7108514308929443,
                0.0005193895776756108
            ],
            "scale" : [
                0.09106440097093582,
                0.022814281284809113,
                0.09106441587209702
            ],
            "translation" : [
                1.1282179355621338,
                0.10510408878326416,
                1.1112523078918457
            ]
        },
        {
            "mesh" : 4,
            "name" : "wheel_top_left",
            "rotation" : [
                0.0823415219783783,
                0.6986073851585388,
                -0.7060664892196655,
                0.08147203922271729
            ],
            "scale" : [
                0.09106441587209702,
                0.022814281284809113,
                0.09106441587209702
            ],
            "translation" : [
                1.8420135974884033,
                0.10510408878326416,
                1.1123065948486328
            ]
        }
    ],
    "materials" : [
        {
            "doubleSided" : true,
            "name" : "Material",
            "pbrMetallicRoughness" : {
                "baseColorFactor" : [
                    0,
                    0,
                    0,
                    1
                ],
                "metallicFactor" : 0,
                "roughnessFactor" : 0.29816514253616333
            }
        },
        {
            "doubleSided" : true,
            "name" : "Material.002",
            "pbrMetallicRoughness" : {
                "baseColorFactor" : [
                    0.1769169270992279,
                    0.6509653925895691,
                    0.8000000715255737,
                    1
                ],
                "metallicFactor" : 0,
                "roughnessFactor" : 0.3899082541465759
            }
        },
        {
            "doubleSided" : true,
            "name" : "Material.003",
            "pbrMetallicRoughness" : {
                "baseColorFactor" : [
                    0.5925782918930054,
                    0.5701957941055298,
                    0.46339482069015503,
                    1
                ],
                "metallicFactor" : 0,
                "roughnessFactor" : 0.5
            }
        },
        {
            "doubleSided" : true,
            "name" : "Material.006",
            "pbrMetallicRoughness" : {
                "baseColorTexture" : {
                    "index" : 0,
                    "texCoord" : 0
                },
                "metallicFactor" : 0,
                "roughnessFactor" : 0.5
            }
        },
        {
            "doubleSided" : true,
            "name" : "Material.008",
            "pbrMetallicRoughness" : {
                "baseColorTexture" : {
                    "index" : 1,
                    "texCoord" : 0
                },
                "metallicFactor" : 0,
                "roughnessFactor" : 0.05963301658630371
            }
        },
        {
            "doubleSided" : true,
            "name" : "Material.010",
            "pbrMetallicRoughness" : {
                "baseColorTexture" : {
                    "index" : 2,
                    "texCoord" : 0
                },
                "metallicFactor" : 0,
                "roughnessFactor" : 0.5
            }
        },
        {
            "doubleSided" : true,
            "name" : "Material.012",
            "pbrMetallicRoughness" : {
                "baseColorTexture" : {
                    "index" : 3,
                    "texCoord" : 0
                },
                "metallicFactor" : 0,
                "roughnessFactor" : 0.5
            }
        }
    ],
    "meshes" : [
        {
            "name" : "Cube.001",
            "primitives" : [
                {
                    "attributes" : {
                        "POSITION" : 0,
                        "NORMAL" : 1,
                        "TEXCOORD_0" : 2
                    },
                    "indices" : 3,
                    "material" : 0
                },
                {
                    "attributes" : {
                        "POSITION" : 4,
                        "NORMAL" : 5,
                        "TEXCOORD_0" : 6
                    },
                    "indices" : 7,
                    "material" : 1
                },
                {
                    "attributes" : {
                        "POSITION" : 8,
                        "NORMAL" : 9,
                        "TEXCOORD_0" : 10
                    },
                    "indices" : 11,
                    "material" : 2
                }
            ]
        },
        {
            "name" : "Cylinder",
            "primitives" : [
                {
                    "attributes" : {
                        "POSITION" : 12,
                        "NORMAL" : 13,
                        "TEXCOORD_0" : 14
                    },
                    "indices" : 15,
                    "material" : 3
                }
            ]
        },
        {
            "name" : "Cylinder.002",
            "primitives" : [
                {
                    "attributes" : {
                        "POSITION" : 16,
                        "NORMAL" : 17,
                        "TEXCOORD_0" : 18
                    },
                    "indices" : 15,
                    "material" : 4
                }
            ]
        },
        {
            "name" : "Cylinder.003",
            "primitives" : [
                {
                    "attributes" : {
                        "POSITION" : 19,
                        "NORMAL" : 20,
                        "TEXCOORD_0" : 21
                    },
                    "indices" : 15,
                    "material" : 5
                }
            ]
        },
        {
            "name" : "Cylinder.004",
            "primitives" : [
                {
                    "attributes" : {
                        "POSITION" : 22,
                        "NORMAL" : 23,
                        "TEXCOORD_0" : 24
                    },
                    "indices" : 15,
                    "material" : 6
                }
            ]
        }
    ],
    "textures" : [
        {
            "source" : 0
        },
        {
            "source" : 0
        },
        {
            "source" : 0
        },
        {
            "source" : 0
        }
    ],
    "images" : [
        {
            "bufferView" : 16,
            "mimeType" : "image/png",
            "name" : "car_tire"
        }
    ],
    "accessors" : [
        {
            "bufferView" : 0,
            "componentType" : 5126,
            "count" : 533,
            "max" : [
                1.5987995862960815,
                1.449754238128662,
                3.625554084777832
            ],
            "min" : [
                -1.542427897453308,
                -1.6411895751953125,
                -3.5706663131713867
            ],
            "type" : "VEC3"
        },
        {
            "bufferView" : 1,
            "componentType" : 5126,
            "count" : 533,
            "type" : "VEC3"
        },
        {
            "bufferView" : 2,
            "componentType" : 5126,
            "count" : 533,
            "type" : "VEC2"
        },
        {
            "bufferView" : 3,
            "componentType" : 5123,
            "count" : 1101,
            "type" : "SCALAR"
        },
        {
            "bufferView" : 4,
            "componentType" : 5126,
            "count" : 8,
            "max" : [
                0.35681062936782837,
                1.449754238128662,
                0.9340203404426575
            ],
            "min" : [
                -0.36728525161743164,
                0.42912372946739197,
                -0.9336463212966919
            ],
            "type" : "VEC3"
        },
        {
            "bufferView" : 5,
            "componentType" : 5126,
            "count" : 8,
            "type" : "VEC3"
        },
        {
            "bufferView" : 6,
            "componentType" : 5126,
            "count" : 8,
            "type" : "VEC2"
        },
        {
            "bufferView" : 7,
            "componentType" : 5123,
            "count" : 12,
            "type" : "SCALAR"
        },
        {
            "bufferView" : 8,
            "componentType" : 5126,
            "count" : 32,
            "max" : [
                1.5987995862960815,
                -1.243032455444336,
                3.625554084777832
            ],
            "min" : [
                -1.542427897453308,
                -1.243032455444336,
                -3.5706663131713867
            ],
            "type" : "VEC3"
        },
        {
            "bufferView" : 9,
            "componentType" : 5126,
            "count" : 32,
            "type" : "VEC3"
        },
        {
            "bufferView" : 10,
            "componentType" : 5126,
            "count" : 32,
            "type" : "VEC2"
        },
        {
            "bufferView" : 11,
            "componentType" : 5123,
            "count" : 90,
            "type" : "SCALAR"
        },
        {
            "bufferView" : 12,
            "componentType" : 5126,
            "count" : 1240,
            "max" : [
                1,
                1.1528970003128052,
                1
            ],
            "min" : [
                -1,
                -1,
                -1
            ],
            "type" : "VEC3"
        },
        {
            "bufferView" : 13,
            "componentType" : 5126,
            "count" : 1240,
            "type" : "VEC3"
        },
        {
            "bufferView" : 14,
            "componentType" : 5126,
            "count" : 1240,
            "type" : "VEC2"
        },
        {
            "bufferView" : 15,
            "componentType" : 5123,
            "count" : 2112,
            "type" : "SCALAR"
        },
        {
            "bufferView" : 17,
            "componentType" : 5126,
            "count" : 1240,
            "max" : [
                1,
                1.1528970003128052,
                1
            ],
            "min" : [
                -1,
                -1,
                -1
            ],
            "type" : "VEC3"
        },
        {
            "bufferView" : 18,
            "componentType" : 5126,
            "count" : 1240,
            "type" : "VEC3"
        },
        {
            "bufferView" : 19,
            "componentType" : 5126,
            "count" : 1240,
            "type" : "VEC2"
        },
        {
            "bufferView" : 20,
            "componentType" : 5126,
            "count" : 1240,
            "max" : [
                1,
                1.1528970003128052,
                1
            ],
            "min" : [
                -1,
                -1,
                -1
            ],
            "type" : "VEC3"
        },
        {
            "bufferView" : 21,
            "componentType" : 5126,
            "count" : 1240,
            "type" : "VEC3"
        },
        {
            "bufferView" : 22,
            "componentType" : 5126,
            "count" : 1240,
            "type" : "VEC2"
        },
        {
            "bufferView" : 23,
            "componentType" : 5126,
            "count" : 1240,
            "max" : [
                1,
                1.1528970003128052,
                1
            ],
            "min" : [
                -1,
                -1,
                -1
            ],
            "type" : "VEC3"
        },
        {
            "bufferView" : 24,
            "componentType" : 5126,
            "count" : 1240,
            "type" : "VEC3"
        },
        {
            "bufferView" : 25,
            "componentType" : 5126,
            "count" : 1240,
            "type" : "VEC2"
        }
    ],
    "bufferViews" : [
        {
            "buffer" : 0,
            "byteLength" : 6396,
            "byteOffset" : 0
        },
        {
            "buffer" : 0,
            "byteLength" : 6396,
            "byteOffset" : 6396
        },
        {
            "buffer" : 0,
            "byteLength" : 4264,
            "byteOffset" : 12792
        },
        {
            "buffer" : 0,
            "byteLength" : 2202,
            "byteOffset" : 17056
        },
        {
            "buffer" : 0,
            "byteLength" : 96,
            "byteOffset" : 19260
        },
        {
            "buffer" : 0,
            "byteLength" : 96,
            "byteOffset" : 19356
        },
        {
            "buffer" : 0,
            "byteLength" : 64,
            "byteOffset" : 19452
        },
        {
            "buffer" : 0,
            "byteLength" : 24,
            "byteOffset" : 19516
        },
        {
            "buffer" : 0,
            "byteLength" : 384,
            "byteOffset" : 19540
        },
        {
            "buffer" : 0,
            "byteLength" : 384,
            "byteOffset" : 19924
        },
        {
            "buffer" : 0,
            "byteLength" : 256,
            "byteOffset" : 20308
        },
        {
            "buffer" : 0,
            "byteLength" : 180,
            "byteOffset" : 20564
        },
        {
            "buffer" : 0,
            "byteLength" : 14880,
            "byteOffset" : 20744
        },
        {
            "buffer" : 0,
            "byteLength" : 14880,
            "byteOffset" : 35624
        },
        {
            "buffer" : 0,
            "byteLength" : 9920,
            "byteOffset" : 50504
        },
        {
            "buffer" : 0,
            "byteLength" : 4224,
            "byteOffset" : 60424
        },
        {
            "buffer" : 0,
            "byteLength" : 110961,
            "byteOffset" : 64648
        },
        {
            "buffer" : 0,
            "byteLength" : 14880,
            "byteOffset" : 175612
        },
        {
            "buffer" : 0,
            "byteLength" : 14880,
            "byteOffset" : 190492
        },
        {
            "buffer" : 0,
            "byteLength" : 9920,
            "byteOffset" : 205372
        },
        {
            "buffer" : 0,
            "byteLength" : 14880,
            "byteOffset" : 215292
        },
        {
            "buffer" : 0,
            "byteLength" : 14880,
            "byteOffset" : 230172
        },
        {
            "buffer" : 0,
            "byteLength" : 9920,
            "byteOffset" : 245052
        },
        {
            "buffer" : 0,
            "byteLength" : 14880,
            "byteOffset" : 254972
        },
        {
            "buffer" : 0,
            "byteLength" : 14880,
            "byteOffset" : 269852
        },
        {
            "buffer" : 0,
            "byteLength" : 9920,
            "byteOffset" : 284732
        }
    ],
    "buffers" : [
        {
            "byteLength" : 294652,
            "uri" : "data:application/octet-stream;base64,"
        }
    ]
}
